<svg xmlns="http://www.w3.org/2000/svg" width="1100" height="880" viewBox="0 0 1100 880" role="img" aria-label="Saket745 live GitHub glass dashboard"><defs><linearGradient id="bg" x1="0" y1="0" x2="1" y2="1"><stop stop-color="#08111f"/><stop offset=".48" stop-color="#0b1424"/><stop offset="1" stop-color="#1a1028"/></linearGradient><linearGradient id="edge" x1="0" x2="1"><stop stop-color="#48c5ff"/><stop offset=".5" stop-color="#a875ff"/><stop offset="1" stop-color="#42dfcf"/></linearGradient><linearGradient id="glowLine" x1="0" x2="1"><stop stop-color="#48c5ff"/><stop offset=".5" stop-color="#9a6dff"/><stop offset="1" stop-color="#42dfcf"/></linearGradient><filter id="blur"><feGaussianBlur stdDeviation="28"/></filter><filter id="glow"><feGaussianBlur stdDeviation="4" result="b"/><feMerge><feMergeNode in="b"/><feMergeNode in="SourceGraphic"/></feMerge></filter><pattern id="grid" width="24" height="24" patternUnits="userSpaceOnUse"><path d="M24 0H0V24" fill="none" stroke="#80bfff" stroke-opacity=".04"/></pattern></defs><rect x="2" y="2" width="1096" height="876" rx="34" fill="url(#bg)" stroke="url(#edge)" stroke-width="1.6"/><ellipse cx="120" cy="0" rx="320" ry="180" fill="#257dff" opacity=".10" filter="url(#blur)"/><ellipse cx="1020" cy="860" rx="340" ry="200" fill="#a052ff" opacity=".09" filter="url(#blur)"/><rect x="3" y="3" width="1094" height="874" rx="33" fill="url(#grid)"/><text x="48" y="58" fill="#f7faff" font-family="Segoe UI,Arial" font-size="30" font-weight="800" letter-spacing="1.5">SAKET745 • GITHUB TELEMETRY</text><text x="48" y="84" fill="#8fa6c9" font-family="Segoe UI,Arial" font-size="13">Saket Maurya · live profile intelligence · event-driven refresh</text><g transform="translate(890,36)"><circle cx="10" cy="10" r="7" fill="#42dfcf" filter="url(#glow)"/><text x="25" y="15" fill="#9cefe4" font-family="Segoe UI,Arial" font-size="12" font-weight="700">LIVE</text></g><rect x="48" y="116" width="312" height="92" rx="20" fill="#0c1728" fill-opacity=".88" stroke="#5574a5" stroke-opacity=".38"/><text x="68" y="143" fill="#8fa6c9" font-family="Segoe UI,Arial" font-size="10.5" font-weight="700" letter-spacing="1.1">REPOSITORIES</text><text x="68" y="181" fill="#f4f8ff" font-family="Segoe UI,Arial" font-size="28" font-weight="800">13</text><text x="248" y="179" fill="#6f86a8" font-family="Segoe UI,Arial" font-size="10" text-anchor="end">public</text><rect x="384" y="116" width="312" height="92" rx="20" fill="#0c1728" fill-opacity=".88" stroke="#5574a5" stroke-opacity=".38"/><text x="404" y="143" fill="#8fa6c9" font-family="Segoe UI,Arial" font-size="10.5" font-weight="700" letter-spacing="1.1">FOLLOWERS</text><text x="404" y="181" fill="#f4f8ff" font-family="Segoe UI,Arial" font-size="28" font-weight="800">1</text><text x="584" y="179" fill="#6f86a8" font-family="Segoe UI,Arial" font-size="10" text-anchor="end">community</text><rect x="720" y="116" width="312" height="92" rx="20" fill="#0c1728" fill-opacity=".88" stroke="#5574a5" stroke-opacity=".38"/><text x="740" y="143" fill="#8fa6c9" font-family="Segoe UI,Arial" font-size="10.5" font-weight="700" letter-spacing="1.1">FOLLOWING</text><text x="740" y="181" fill="#f4f8ff" font-family="Segoe UI,Arial" font-size="28" font-weight="800">0</text><text x="920" y="179" fill="#6f86a8" font-family="Segoe UI,Arial" font-size="10" text-anchor="end">network</text><rect x="48" y="228" width="312" height="92" rx="20" fill="#0c1728" fill-opacity=".88" stroke="#5574a5" stroke-opacity=".38"/><text x="68" y="255" fill="#8fa6c9" font-family="Segoe UI,Arial" font-size="10.5" font-weight="700" letter-spacing="1.1">TOTAL STARS</text><text x="68" y="293" fill="#f4f8ff" font-family="Segoe UI,Arial" font-size="28" font-weight="800">0</text><text x="248" y="291" fill="#6f86a8" font-family="Segoe UI,Arial" font-size="10" text-anchor="end">across repos</text><rect x="384" y="228" width="312" height="92" rx="20" fill="#0c1728" fill-opacity=".88" stroke="#5574a5" stroke-opacity=".38"/><text x="404" y="255" fill="#8fa6c9" font-family="Segoe UI,Arial" font-size="10.5" font-weight="700" letter-spacing="1.1">TOTAL FORKS</text><text x="404" y="293" fill="#f4f8ff" font-family="Segoe UI,Arial" font-size="28" font-weight="800">0</text><text x="584" y="291" fill="#6f86a8" font-family="Segoe UI,Arial" font-size="10" text-anchor="end">across repos</text><rect x="720" y="228" width="312" height="92" rx="20" fill="#0c1728" fill-opacity=".88" stroke="#5574a5" stroke-opacity=".38"/><text x="740" y="255" fill="#8fa6c9" font-family="Segoe UI,Arial" font-size="10.5" font-weight="700" letter-spacing="1.1">CONTRIBUTIONS</text><text x="740" y="293" fill="#f4f8ff" font-family="Segoe UI,Arial" font-size="28" font-weight="800">1.6k</text><text x="920" y="291" fill="#6f86a8" font-family="Segoe UI,Arial" font-size="10" text-anchor="end">current period</text><rect x="48" y="350" width="500" height="250" rx="24" fill="#0c1728" fill-opacity=".88" stroke="#5574a5" stroke-opacity=".38"/><text x="70" y="384" fill="#f5f8ff" font-family="Segoe UI,Arial" font-size="20" font-weight="750">TOP LANGUAGES</text><text x="70" y="405" fill="#8fa6c9" font-family="Segoe UI,Arial" font-size="11">Repository composition · calculated from language bytes</text><circle cx="76" cy="434" r="5" fill="#48c5ff" filter="url(#glow)"/><text x="90" y="438" fill="#eaf1fd" font-family="Segoe UI,Arial" font-size="12.5" font-weight="650">Jupyter Notebook</text><rect x="208" y="429" width="260" height="9" rx="4.5" fill="#15243a"/><rect x="208" y="429" width="92.4" height="9" rx="4.5" fill="url(#glowLine)"/><text x="516" y="438" fill="#c8d6ec" font-family="Segoe UI,Arial" font-size="11" text-anchor="end">35.5%</text><circle cx="76" cy="465" r="5" fill="#9a6dff" filter="url(#glow)"/><text x="90" y="469" fill="#eaf1fd" font-family="Segoe UI,Arial" font-size="12.5" font-weight="650">Python</text><rect x="208" y="460" width="260" height="9" rx="4.5" fill="#15243a"/><rect x="208" y="460" width="85.6" height="9" rx="4.5" fill="url(#glowLine)"/><text x="516" y="469" fill="#c8d6ec" font-family="Segoe UI,Arial" font-size="11" text-anchor="end">32.9%</text><circle cx="76" cy="496" r="5" fill="#42dfcf" filter="url(#glow)"/><text x="90" y="500" fill="#eaf1fd" font-family="Segoe UI,Arial" font-size="12.5" font-weight="650">HTML</text><rect x="208" y="491" width="260" height="9" rx="4.5" fill="#15243a"/><rect x="208" y="491" width="36.6" height="9" rx="4.5" fill="url(#glowLine)"/><text x="516" y="500" fill="#c8d6ec" font-family="Segoe UI,Arial" font-size="11" text-anchor="end">14.1%</text><circle cx="76" cy="527" r="5" fill="#ffc15b" filter="url(#glow)"/><text x="90" y="531" fill="#eaf1fd" font-family="Segoe UI,Arial" font-size="12.5" font-weight="650">TypeScript</text><rect x="208" y="522" width="260" height="9" rx="4.5" fill="#15243a"/><rect x="208" y="522" width="23.1" height="9" rx="4.5" fill="url(#glowLine)"/><text x="516" y="531" fill="#c8d6ec" font-family="Segoe UI,Arial" font-size="11" text-anchor="end">8.9%</text><circle cx="76" cy="558" r="5" fill="#ff6fae" filter="url(#glow)"/><text x="90" y="562" fill="#eaf1fd" font-family="Segoe UI,Arial" font-size="12.5" font-weight="650">JavaScript</text><rect x="208" y="553" width="260" height="9" rx="4.5" fill="#15243a"/><rect x="208" y="553" width="19.7" height="9" rx="4.5" fill="url(#glowLine)"/><text x="516" y="562" fill="#c8d6ec" font-family="Segoe UI,Arial" font-size="11" text-anchor="end">7.6%</text><circle cx="76" cy="589" r="5" fill="#77a7ff" filter="url(#glow)"/><text x="90" y="593" fill="#eaf1fd" font-family="Segoe UI,Arial" font-size="12.5" font-weight="650">CSS</text><rect x="208" y="584" width="260" height="9" rx="4.5" fill="#15243a"/><rect x="208" y="584" width="1.6" height="9" rx="4.5" fill="url(#glowLine)"/><text x="516" y="593" fill="#c8d6ec" font-family="Segoe UI,Arial" font-size="11" text-anchor="end">0.6%</text><rect x="570" y="350" width="482" height="250" rx="24" fill="#0c1728" fill-opacity=".88" stroke="#5574a5" stroke-opacity=".38"/><text x="592" y="384" fill="#f5f8ff" font-family="Segoe UI,Arial" font-size="20" font-weight="750">LIVE ACTIVITY</text><text x="592" y="405" fill="#8fa6c9" font-family="Segoe UI,Arial" font-size="11">Recent public GitHub events detected for Saket745</text><circle cx="596" cy="430" r="4" fill="#48c5ff" filter="url(#glow)"/><text x="610" y="434" fill="#eaf1fd" font-family="Segoe UI,Arial" font-size="11.5" font-weight="650">Delete</text><text x="610" y="450" fill="#7189ad" font-family="Segoe UI,Arial" font-size="9.8">Saket745/AI-Based-Smart-Network-Routing-System</text><circle cx="596" cy="459" r="4" fill="#9a6dff" filter="url(#glow)"/><text x="610" y="463" fill="#eaf1fd" font-family="Segoe UI,Arial" font-size="11.5" font-weight="650">Delete</text><text x="610" y="479" fill="#7189ad" font-family="Segoe UI,Arial" font-size="9.8">Saket745/AI-Based-Smart-Network-Routing-System</text><circle cx="596" cy="488" r="4" fill="#42dfcf" filter="url(#glow)"/><text x="610" y="492" fill="#eaf1fd" font-family="Segoe UI,Arial" font-size="11.5" font-weight="650">Delete</text><text x="610" y="508" fill="#7189ad" font-family="Segoe UI,Arial" font-size="9.8">Saket745/AI-Based-Smart-Network-Routing-System</text><circle cx="596" cy="517" r="4" fill="#ffc15b" filter="url(#glow)"/><text x="610" y="521" fill="#eaf1fd" font-family="Segoe UI,Arial" font-size="11.5" font-weight="650">Delete</text><text x="610" y="537" fill="#7189ad" font-family="Segoe UI,Arial" font-size="9.8">Saket745/AI-Based-Smart-Network-Routing-System</text><circle cx="596" cy="546" r="4" fill="#ff6fae" filter="url(#glow)"/><text x="610" y="550" fill="#eaf1fd" font-family="Segoe UI,Arial" font-size="11.5" font-weight="650">Delete</text><text x="610" y="566" fill="#7189ad" font-family="Segoe UI,Arial" font-size="9.8">Saket745/AI-Based-Smart-Network-Routing-System</text><circle cx="596" cy="575" r="4" fill="#77a7ff" filter="url(#glow)"/><text x="610" y="579" fill="#eaf1fd" font-family="Segoe UI,Arial" font-size="11.5" font-weight="650">Delete</text><text x="610" y="595" fill="#7189ad" font-family="Segoe UI,Arial" font-size="9.8">Saket745/AI-Based-Smart-Network-Routing-System</text><rect x="48" y="624" width="500" height="212" rx="24" fill="#0c1728" fill-opacity=".88" stroke="#5574a5" stroke-opacity=".38"/><text x="70" y="658" fill="#f5f8ff" font-family="Segoe UI,Arial" font-size="20" font-weight="750">CONTRIBUTION MATRIX</text><text x="70" y="679" fill="#8fa6c9" font-family="Segoe UI,Arial" font-size="11">Commits · PRs · Issues · Reviews</text><text x="70" y="720" fill="#7088aa" font-family="Segoe UI,Arial" font-size="9.5" font-weight="700" letter-spacing=".8">COMMITS</text><text x="70" y="745" fill="#f2f7ff" font-family="Segoe UI,Arial" font-size="24" font-weight="800">985</text><text x="305" y="720" fill="#7088aa" font-family="Segoe UI,Arial" font-size="9.5" font-weight="700" letter-spacing=".8">PULL REQUESTS</text><text x="305" y="745" fill="#f2f7ff" font-family="Segoe UI,Arial" font-size="24" font-weight="800">385</text><text x="70" y="775" fill="#7088aa" font-family="Segoe UI,Arial" font-size="9.5" font-weight="700" letter-spacing=".8">ISSUES</text><text x="70" y="800" fill="#f2f7ff" font-family="Segoe UI,Arial" font-size="24" font-weight="800">0</text><text x="305" y="775" fill="#7088aa" font-family="Segoe UI,Arial" font-size="9.5" font-weight="700" letter-spacing=".8">REVIEWS</text><text x="305" y="800" fill="#f2f7ff" font-family="Segoe UI,Arial" font-size="24" font-weight="800">0</text><rect x="570" y="624" width="482" height="212" rx="24" fill="#0c1728" fill-opacity=".88" stroke="#5574a5" stroke-opacity=".38"/><text x="592" y="658" fill="#f5f8ff" font-family="Segoe UI,Arial" font-size="20" font-weight="750">TECH STACK</text><text x="592" y="679" fill="#8fa6c9" font-family="Segoe UI,Arial" font-size="11">Configured from profile-stack.json</text><rect x="590" y="702" width="205" height="40" rx="13" fill="#111f32" stroke="#48c5ff" stroke-opacity=".24"/><circle cx="604" cy="722" r="4" fill="#48c5ff" filter="url(#glow)"/><text x="616" y="719" fill="#edf4ff" font-family="Segoe UI,Arial" font-size="10.5" font-weight="700">Python</text><text x="616" y="732" fill="#7088aa" font-family="Segoe UI,Arial" font-size="8.2">AI / Automation</text><rect x="824" y="702" width="205" height="40" rx="13" fill="#111f32" stroke="#9a6dff" stroke-opacity=".24"/><circle cx="838" cy="722" r="4" fill="#9a6dff" filter="url(#glow)"/><text x="850" y="719" fill="#edf4ff" font-family="Segoe UI,Arial" font-size="10.5" font-weight="700">C++</text><text x="850" y="732" fill="#7088aa" font-family="Segoe UI,Arial" font-size="8.2">DSA / Systems</text><rect x="590" y="756" width="205" height="40" rx="13" fill="#111f32" stroke="#42dfcf" stroke-opacity=".24"/><circle cx="604" cy="776" r="4" fill="#42dfcf" filter="url(#glow)"/><text x="616" y="773" fill="#edf4ff" font-family="Segoe UI,Arial" font-size="10.5" font-weight="700">React</text><text x="616" y="786" fill="#7088aa" font-family="Segoe UI,Arial" font-size="8.2">Frontend</text><rect x="824" y="756" width="205" height="40" rx="13" fill="#111f32" stroke="#ffc15b" stroke-opacity=".24"/><circle cx="838" cy="776" r="4" fill="#ffc15b" filter="url(#glow)"/><text x="850" y="773" fill="#edf4ff" font-family="Segoe UI,Arial" font-size="10.5" font-weight="700">FastAPI</text><text x="850" y="786" fill="#7088aa" font-family="Segoe UI,Arial" font-size="8.2">Backend</text><rect x="590" y="810" width="205" height="40" rx="13" fill="#111f32" stroke="#ff6fae" stroke-opacity=".24"/><circle cx="604" cy="830" r="4" fill="#ff6fae" filter="url(#glow)"/><text x="616" y="827" fill="#edf4ff" font-family="Segoe UI,Arial" font-size="10.5" font-weight="700">PyTorch</text><text x="616" y="840" fill="#7088aa" font-family="Segoe UI,Arial" font-size="8.2">Deep Learning</text><rect x="824" y="810" width="205" height="40" rx="13" fill="#111f32" stroke="#77a7ff" stroke-opacity=".24"/><circle cx="838" cy="830" r="4" fill="#77a7ff" filter="url(#glow)"/><text x="850" y="827" fill="#edf4ff" font-family="Segoe UI,Arial" font-size="10.5" font-weight="700">OpenCV</text><text x="850" y="840" fill="#7088aa" font-family="Segoe UI,Arial" font-size="8.2">Computer Vision</text><text x="1052" y="860" fill="#627ca2" font-family="Segoe UI,Arial" font-size="9.5" text-anchor="end">SYNCED 2026-09-04 11:16 UTC · SOURCE GITHUB</text></svg>